<?xml version="1.0" standalone="no"?>
<!DOCTYPE svg PUBLIC "-//W3C//DTD SVG 20010904//EN"
 "http://www.w3.org/TR/2001/REC-SVG-20010904/DTD/svg10.dtd">
<svg version="1.0" xmlns="http://www.w3.org/2000/svg"
 width="512.000000pt" height="512.000000pt" viewBox="0 0 512.000000 512.000000"
 preserveAspectRatio="xMidYMid meet">

<g transform="translate(0.000000,512.000000) scale(0.100000,-0.100000)"
fill="#000000" stroke="none">
<path d="M2420 4879 c-52 -5 -99 -10 -105 -13 -11 -4 -21 -31 -44 -122 l-11
-41 -80 -17 c-45 -10 -87 -16 -94 -13 -7 3 -30 35 -52 71 -21 36 -41 66 -45
66 -21 0 -251 -86 -311 -116 l-70 -35 7 -74 7 -73 -38 -24 c-22 -14 -58 -35
-81 -48 l-42 -23 -54 41 c-30 23 -57 42 -62 42 -19 0 -295 -235 -295 -251 0
-5 16 -33 35 -63 19 -30 35 -61 35 -68 -1 -7 -23 -37 -50 -67 -28 -30 -50 -62
-50 -71 0 -27 -130 -186 -149 -181 -9 2 -41 4 -71 5 -79 2 -104 -19 -152 -124
-22 -47 -45 -96 -51 -109 -7 -13 -12 -52 -12 -86 0 -52 4 -67 27 -97 27 -35
27 -36 11 -77 l-16 -41 -60 0 c-55 0 -62 -3 -97 -37 -29 -30 -43 -58 -65 -128
-15 -49 -31 -100 -36 -113 -28 -71 9 -154 81 -185 46 -20 50 -25 50 -58 0 -36
0 -36 -50 -42 -95 -11 -123 -52 -139 -202 -15 -133 -14 -153 9 -202 22 -50 70
-83 121 -83 45 0 55 -12 61 -73 5 -43 3 -49 -23 -67 -67 -48 -85 -126 -53
-225 43 -129 66 -184 87 -203 33 -30 99 -47 135 -34 31 11 52 1 52 -25 0 -7 5
-22 12 -33 11 -16 9 -23 -14 -47 -60 -63 -62 -123 -8 -227 89 -169 115 -196
194 -196 31 0 65 7 87 19 20 11 40 16 45 13 22 -16 165 -184 160 -189 -3 -3
-36 1 -73 10 -226 50 -284 58 -290 40 -6 -16 127 -154 251 -261 56 -48 103
-89 106 -92 14 -16 135 -103 215 -156 88 -57 406 -224 429 -224 28 0 85 63
117 129 36 74 45 80 96 60 114 -45 280 -75 527 -96 141 -12 446 33 656 96 19
6 36 11 37 11 1 0 9 -17 18 -37 55 -124 83 -163 121 -165 18 -2 237 101 329
154 64 37 214 138 285 192 161 123 417 366 406 385 -10 15 -56 14 -125 -3 -31
-7 -94 -21 -141 -30 -47 -10 -97 -21 -112 -26 -16 -4 -30 -5 -33 -1 -6 10 159
171 175 171 38 0 261 116 316 164 45 39 124 142 124 160 0 6 -28 2 -74 -11
-11 -3 9 23 46 59 48 47 76 86 102 141 20 42 36 79 36 82 0 8 -81 -26 -125
-53 -55 -33 -120 -98 -157 -155 -46 -71 -46 -49 0 35 35 64 48 78 106 113 128
78 197 165 236 296 21 68 15 72 -45 33 -59 -39 -92 -72 -143 -139 -25 -33 -42
-51 -38 -40 4 11 13 37 19 59 9 27 31 54 77 95 80 69 96 86 127 135 31 47 48
96 57 160 l8 49 -32 -20 c-43 -27 -117 -100 -138 -135 -16 -28 -32 -37 -32
-19 0 28 27 70 80 129 33 36 74 93 90 126 27 56 59 200 47 213 -17 17 -157
-142 -157 -178 0 -5 -5 -9 -11 -9 -26 0 4 77 57 147 70 92 94 158 94 263 0 58
-4 80 -12 80 -16 -1 -82 -86 -101 -131 -8 -19 -21 -47 -28 -64 l-14 -30 -3 43
c-3 37 3 53 40 110 70 107 83 145 83 237 -1 84 -19 160 -37 149 -18 -12 -75
-109 -91 -158 -10 -27 -17 -68 -17 -90 -1 -32 -3 -37 -11 -24 -22 38 -12 101
29 183 53 108 69 178 53 242 -16 63 -44 133 -54 133 -5 0 -22 -30 -40 -67 -28
-62 -31 -77 -32 -174 0 -82 -3 -102 -11 -90 -27 38 -25 110 6 231 6 25 12 79
12 121 0 81 -24 153 -70 209 l-20 25 -12 -30 c-31 -78 -32 -192 -3 -271 29
-80 9 -83 -31 -4 l-38 75 12 115 c10 98 9 125 -3 172 -20 77 -95 184 -115 164
-4 -4 -7 -51 -7 -104 0 -84 4 -105 26 -152 53 -112 44 -123 -20 -25 -24 36
-87 115 -140 176 -145 168 -231 272 -231 282 0 4 18 32 40 61 22 29 40 57 40
63 0 24 -269 263 -295 263 -4 0 -33 -21 -65 -46 -32 -25 -64 -44 -72 -42 -23
6 -137 82 -142 95 -3 6 -1 27 5 45 5 18 9 50 9 71 0 35 -3 39 -52 62 -109 49
-294 115 -328 115 -8 0 -28 -25 -45 -56 -47 -86 -48 -87 -141 -67 -43 9 -84
20 -89 24 -6 4 -19 42 -29 83 l-19 75 -46 5 c-102 12 -201 13 -291 5z m294
-29 c18 -7 28 -21 36 -52 29 -115 24 -110 139 -134 l103 -21 34 53 c19 30 37
61 40 69 4 8 16 15 28 15 31 0 176 -50 268 -93 l78 -36 -7 -48 c-15 -103 -16
-102 70 -160 44 -29 86 -53 94 -53 8 0 39 20 67 45 29 25 58 45 63 45 23 0
263 -214 263 -234 0 -5 -18 -33 -40 -62 -22 -29 -40 -58 -40 -65 0 -6 23 -37
50 -69 28 -32 50 -60 50 -63 0 -3 -48 -49 -106 -103 l-106 -98 -35 44 c-72 90
-225 230 -321 294 -170 113 -356 191 -572 238 -93 20 -132 23 -345 23 -213 0
-252 -3 -345 -23 -330 -72 -574 -204 -802 -433 l-127 -127 -100 95 -101 95 50
58 c27 32 50 60 50 63 0 3 -16 33 -36 66 -23 39 -33 65 -27 74 17 30 241 217
259 217 4 0 31 -19 60 -41 30 -23 59 -39 66 -36 7 3 49 28 93 55 57 35 80 54
78 67 -1 10 -3 44 -5 74 l-3 56 65 32 c70 35 253 103 275 103 8 0 30 -29 50
-65 20 -36 40 -67 45 -70 5 -3 37 1 72 9 34 8 79 17 99 20 36 6 37 9 55 74 23
90 29 100 61 105 57 8 333 7 357 -3z m-184 -555 l0 -75 -165 0 -165 0 0 -114
c0 -66 -4 -117 -10 -121 -6 -3 -131 -9 -280 -12 l-270 -6 -35 -59 c-19 -33
-35 -61 -35 -63 0 -2 -31 -56 -70 -119 -38 -64 -70 -127 -70 -140 0 -29 30
-61 80 -83 49 -23 202 -22 250 0 51 24 68 40 75 70 7 27 1 42 -99 231 -20 38
-36 71 -36 74 0 7 466 -7 485 -14 11 -5 15 -22 15 -65 0 -53 -3 -60 -27 -75
-103 -63 -387 -254 -427 -288 -27 -22 -55 -55 -63 -73 -7 -18 -21 -33 -29 -33
-30 0 -80 -39 -100 -77 -10 -21 -29 -46 -41 -56 -17 -13 -23 -29 -23 -57 0
-32 -5 -41 -32 -59 -41 -25 -54 -45 -63 -100 -5 -28 -19 -56 -41 -81 -28 -30
-34 -46 -34 -81 0 -29 -9 -59 -26 -89 -18 -31 -27 -63 -29 -101 -1 -30 -8 -72
-16 -92 l-13 -37 -268 0 -268 0 0 48 c0 57 -25 102 -75 134 -46 30 -44 59 4
73 19 6 49 24 66 40 29 28 53 87 102 258 12 44 -8 105 -46 144 -36 37 -37 39
-25 70 15 36 30 48 39 33 3 -5 29 -10 57 -10 69 0 111 27 141 93 14 29 37 79
53 112 37 79 40 159 6 204 -14 19 -20 36 -15 44 19 32 107 147 113 147 3 0 32
-27 65 -60 33 -33 64 -60 70 -60 5 0 41 36 79 81 263 310 691 506 1129 517
l67 2 0 -75z m396 -104 c5 -6 7 -136 4 -336 l-5 -327 -36 -32 c-19 -18 -55
-40 -80 -49 -24 -9 -88 -33 -142 -52 -66 -25 -102 -33 -110 -27 -7 6 -58 26
-114 46 -125 43 -150 56 -188 96 l-30 31 -3 321 c-2 254 0 323 10 330 18 11
682 10 694 -1z m-728 -270 l3 -43 -228 6 c-125 4 -243 9 -260 12 -37 5 -43 -8
-19 -41 16 -24 116 -213 116 -220 0 -13 -28 -3 -34 13 -3 9 -15 31 -26 47 -11
17 -24 39 -29 50 -8 16 -10 17 -10 3 -1 -9 6 -23 14 -32 8 -8 18 -29 21 -45 6
-30 5 -31 -29 -31 -36 0 -52 12 -60 45 -2 11 -3 3 -2 -17 3 -32 0 -38 -16 -38
-16 0 -18 5 -13 28 l7 27 -22 -22 c-42 -44 -117 -19 -77 26 9 10 16 22 16 28
0 6 7 16 15 23 8 7 15 20 14 29 0 13 -2 13 -6 1 -4 -8 -12 -21 -20 -28 -7 -7
-13 -20 -13 -28 0 -8 -4 -14 -8 -14 -5 0 -16 -16 -25 -35 -18 -38 -49 -49 -40
-15 3 11 9 20 14 20 5 0 9 4 9 9 0 5 36 70 80 143 l80 133 192 6 c106 3 229 5
273 5 l80 -1 3 -44z m1288 34 c10 -3 89 -131 149 -240 15 -27 31 -54 36 -60 5
-5 9 -13 9 -17 0 -4 -76 -8 -170 -8 -108 0 -170 4 -170 10 0 10 106 216 122
237 5 6 5 14 0 16 -4 3 -89 2 -188 -3 -98 -5 -209 -10 -246 -10 l-68 0 0 38
c0 21 3 42 7 45 6 7 495 -1 519 -8z m-2421 -94 c-139 -190 -164 -213 -192
-175 -7 10 -13 21 -13 25 0 4 41 63 91 130 l91 121 28 -27 28 -27 -33 -47z
m3032 37 c76 -80 174 -205 226 -287 37 -58 42 -62 54 -45 19 26 17 38 -18 112
-24 52 -32 86 -37 151 -6 98 5 104 51 29 40 -65 47 -105 40 -253 l-5 -130 42
-89 c39 -82 44 -88 56 -71 19 26 17 59 -6 133 -23 73 -25 110 -8 180 14 61 28
59 57 -7 35 -82 36 -119 6 -273 l-28 -143 20 -60 c15 -45 24 -60 38 -60 18 0
19 10 20 125 0 107 3 132 22 173 13 27 27 46 31 43 18 -11 44 -129 38 -169 -4
-22 -29 -91 -56 -153 l-49 -113 14 -68 c8 -37 15 -80 15 -95 0 -15 5 -30 11
-34 22 -13 34 31 35 126 0 79 4 103 24 140 56 109 65 110 76 9 9 -87 -11 -154
-76 -253 l-50 -77 0 -88 c0 -98 5 -121 26 -121 15 0 20 18 28 95 2 28 13 69
23 91 23 52 65 114 77 114 5 0 6 -35 4 -77 -5 -87 -27 -140 -87 -213 -64 -77
-68 -88 -74 -198 -6 -93 -5 -103 10 -100 12 2 21 21 28 59 15 74 48 138 96
191 l40 43 -4 -55 c-5 -79 -43 -153 -125 -244 -42 -45 -72 -87 -72 -100 -1
-11 -9 -56 -19 -99 -10 -42 -15 -79 -12 -82 15 -9 30 13 61 89 25 60 46 91 89
134 60 59 71 56 52 -15 -21 -74 -69 -141 -150 -207 l-78 -65 -37 -103 c-20
-57 -36 -106 -36 -110 0 -5 9 -8 20 -8 15 0 29 19 56 74 47 96 166 217 190
193 12 -12 -66 -153 -108 -196 -24 -24 -79 -68 -123 -97 -76 -49 -82 -56 -124
-138 -33 -63 -42 -89 -33 -98 17 -17 38 -3 75 54 19 29 54 72 78 94 50 47 135
99 142 87 8 -13 -28 -80 -69 -130 -43 -52 -141 -118 -228 -154 -51 -21 -66
-34 -117 -102 -63 -83 -68 -94 -43 -104 10 -4 45 23 107 84 87 85 145 125 209
144 49 14 41 -9 -29 -79 -74 -75 -150 -121 -283 -173 -77 -29 -95 -42 -183
-126 -53 -52 -101 -92 -106 -89 -22 14 7 65 64 113 103 87 160 153 259 302 53
79 96 148 96 152 0 5 20 50 44 101 62 134 72 156 91 223 9 33 23 77 31 98 19
50 18 52 -13 51 -35 -1 -84 -23 -101 -46 -7 -10 -21 -18 -31 -18 -14 0 -20 -9
-23 -35 -4 -34 -3 -35 29 -35 23 0 42 -8 58 -25 22 -21 24 -27 13 -50 -9 -20
-18 -25 -49 -25 -21 0 -41 -5 -44 -10 -3 -6 -17 -10 -29 -10 -13 0 -29 -7 -37
-16 -7 -8 -25 -22 -41 -30 -32 -17 -37 -34 -9 -34 10 0 32 -5 48 -10 73 -26
62 -108 -14 -108 -66 -1 -100 -9 -122 -31 -12 -12 -28 -21 -36 -21 -9 0 -18
-8 -22 -17 -9 -27 -34 -53 -50 -53 -23 0 -52 42 -53 76 0 21 9 39 29 58 16 16
35 42 42 60 23 57 59 86 59 47 0 -11 12 -29 27 -40 23 -19 29 -20 47 -8 11 8
22 20 24 28 2 8 -2 6 -8 -3 -25 -40 -83 -3 -83 52 0 21 10 41 31 63 18 18 32
39 32 45 0 14 30 64 44 74 6 4 23 -2 38 -13 15 -11 36 -18 46 -16 13 4 12 5
-5 6 -24 1 -63 45 -63 71 0 10 10 30 22 45 13 17 23 44 23 67 1 21 8 45 17 54
14 15 18 14 43 -2 22 -14 31 -15 46 -6 23 15 112 -2 131 -25 11 -13 14 -4 24
58 7 41 15 86 19 100 9 34 -22 44 -54 18 -13 -11 -29 -19 -36 -19 -6 0 -17
-11 -23 -25 -6 -14 -16 -25 -22 -25 -5 0 -10 -10 -10 -22 0 -24 -26 -58 -45
-58 -6 0 -21 9 -33 20 -27 26 -29 71 -2 95 14 13 18 25 13 47 -3 16 0 40 7 53
12 23 18 25 99 24 47 0 93 -5 102 -9 14 -8 17 1 23 77 3 47 9 97 13 111 l6 26
-29 -21 c-28 -20 -60 -50 -95 -90 -9 -10 -19 -30 -23 -45 -8 -35 -41 -46 -68
-22 -15 15 -18 26 -13 54 3 19 6 55 5 80 0 33 5 52 20 68 21 23 64 29 89 13
10 -6 22 -5 35 5 26 18 41 18 60 -1 14 -14 15 -5 10 97 -8 176 -40 364 -89
513 -7 22 -16 53 -20 69 -11 51 -132 306 -145 306 -4 0 -13 12 -19 28 -16 36
-34 68 -54 90 -10 10 -17 23 -17 29 0 6 -7 16 -15 23 -13 11 -14 10 -9 -4 4
-10 -4 -30 -20 -51 -15 -19 -30 -54 -34 -77 -5 -29 -13 -44 -25 -46 -29 -6
-49 18 -43 51 4 17 0 37 -10 52 -24 37 -11 72 28 80 18 4 39 12 45 17 7 6 20
8 28 4 33 -12 11 18 -86 119 -85 88 -100 107 -89 120 7 8 16 15 20 15 4 0 34
-28 67 -62z m-3246 -119 c31 -16 5 -39 -43 -39 -54 0 -95 -43 -136 -142 -36
-87 -38 -101 -17 -141 11 -21 12 -34 5 -48 -19 -35 -41 -16 -61 55 -17 60 70
264 130 303 36 25 90 30 122 12z m-2 -94 c18 -31 25 -35 60 -35 26 0 41 -5 45
-16 12 -30 5 -89 -14 -129 -11 -22 -19 -45 -20 -52 0 -6 -14 -25 -31 -42 -42
-43 -90 -43 -121 -1 -15 21 -30 30 -49 30 -30 0 -59 31 -59 64 0 52 67 185
101 203 42 22 65 16 88 -22z m161 -7 c34 -57 26 -106 -45 -253 -40 -83 -76
-115 -130 -115 -54 0 -76 11 -73 34 3 18 8 21 49 18 40 -3 51 1 77 25 36 33
92 160 92 209 0 18 -5 44 -11 58 -9 20 -9 29 1 41 17 20 17 20 40 -17z m820
-91 c0 -40 -116 -97 -195 -97 -51 0 -138 30 -167 58 -53 50 -45 52 167 52 154
0 195 -3 195 -13z m1870 4 c0 -64 -141 -115 -253 -91 -67 13 -121 47 -125 78
l-3 22 190 0 c109 0 191 -4 191 -9z m634 -117 c21 -20 21 -20 -18 -60 -35 -36
-49 -76 -39 -112 7 -28 -19 -39 -54 -23 -22 10 -25 16 -20 47 4 24 1 44 -10
60 -21 33 -5 71 34 79 15 4 35 10 43 15 23 14 47 12 64 -6z m-3591 -65 c7 -11
-3 -49 -38 -140 -58 -153 -61 -159 -84 -159 -40 0 -46 27 -22 88 93 233 94
235 119 230 8 -2 19 -10 25 -19z m-153 -166 c11 -10 -20 -38 -46 -41 -58 -7
-80 -35 -114 -142 l-32 -100 21 -43 c11 -23 35 -50 52 -60 32 -18 35 -40 6
-45 -47 -9 -117 71 -117 135 0 43 60 228 84 258 33 41 118 63 146 38z m3840 2
c7 -8 10 -20 6 -27 -13 -27 -32 -53 -43 -61 -7 -4 -13 -17 -13 -27 0 -10 -4
-22 -10 -25 -5 -3 -10 -19 -10 -36 0 -24 -4 -29 -24 -29 -37 0 -52 25 -38 62
9 26 8 36 -6 60 -22 37 -7 62 38 66 19 2 43 10 54 18 26 18 31 18 46 -1z
m-3678 -77 c32 -45 30 -119 -5 -227 -32 -99 -65 -147 -108 -156 -17 -4 -32 -5
-34 -3 -11 10 9 47 30 56 34 16 52 47 80 141 26 89 25 127 -7 161 -12 13 -17
28 -13 40 9 29 30 24 57 -12z m-190 -13 c-10 -54 73 -91 98 -45 6 11 17 20 24
20 14 0 36 -41 36 -70 0 -30 -47 -161 -66 -181 -23 -25 -33 -24 -44 5 -8 22
-37 46 -55 46 -4 0 -20 -14 -35 -30 -25 -27 -32 -29 -48 -19 -36 23 -54 66
-47 112 4 23 10 47 14 52 4 6 13 29 19 52 14 46 52 83 87 83 18 0 21 -4 17
-25z m3955 -161 c2 -6 -15 -23 -37 -39 -32 -24 -39 -35 -35 -53 4 -15 0 -24
-10 -28 -9 -4 -15 -19 -15 -39 0 -38 -11 -49 -40 -40 -33 10 -44 42 -25 71 14
21 14 30 3 60 -17 48 -3 67 57 76 26 4 49 9 52 12 7 7 46 -9 50 -20z m-3928
-119 c4 -24 -27 -251 -40 -282 -10 -26 -41 -30 -59 -8 -10 11 -10 29 -1 77 6
35 16 95 21 133 15 102 18 107 48 103 17 -2 28 -10 31 -23z m3959 -107 c21
-21 13 -44 -28 -79 -22 -19 -40 -39 -40 -45 0 -6 -7 -17 -15 -24 -8 -7 -15
-26 -15 -42 0 -34 -21 -45 -55 -30 -31 14 -43 58 -22 79 13 13 13 20 2 47 -23
55 16 104 73 92 15 -3 34 -2 42 4 20 13 44 12 58 -2z m-4083 -101 c0 -13 -13
-23 -40 -33 -65 -22 -85 -68 -85 -194 0 -107 18 -133 113 -164 11 -4 17 -13
15 -23 -8 -39 -104 -11 -142 40 -19 26 -21 41 -20 162 1 118 4 138 23 168 36
58 136 90 136 44z m179 -28 c35 -42 39 -61 35 -196 -4 -104 -7 -122 -27 -151
-31 -43 -60 -59 -69 -36 -3 9 -2 22 3 29 48 65 49 68 52 176 l4 106 -32 37
c-32 36 -35 66 -6 66 8 0 26 -14 40 -31z m-178 -44 c12 -49 61 -58 97 -19 l24
26 17 -23 c25 -36 23 -208 -3 -240 l-19 -24 -13 28 c-24 53 -94 43 -106 -14
-5 -27 -9 -30 -32 -24 -14 3 -36 17 -48 31 -20 22 -23 36 -23 111 0 94 16 143
53 161 35 17 46 14 53 -13z m3192 -153 c29 -39 58 -146 87 -312 47 -277 45
-270 66 -270 17 0 39 49 39 90 0 9 6 25 14 36 19 27 37 126 35 200 0 32 2 109
4 169 l5 110 216 3 216 2 11 -27 c7 -19 7 -35 -2 -55 -6 -15 -8 -43 -5 -61 4
-22 1 -45 -10 -65 -8 -18 -13 -41 -9 -52 4 -13 -1 -30 -14 -46 -12 -15 -21
-40 -21 -56 0 -17 -9 -41 -20 -55 -11 -14 -20 -41 -20 -59 0 -18 -9 -48 -20
-66 -11 -18 -20 -41 -20 -52 0 -10 -11 -31 -25 -48 -14 -16 -25 -35 -25 -42 0
-7 -25 -44 -55 -82 -30 -38 -63 -85 -72 -104 -10 -19 -33 -52 -51 -74 -30 -34
-34 -44 -29 -78 6 -46 38 -84 94 -113 77 -39 93 -55 93 -88 0 -27 -15 -47 -99
-129 -54 -54 -104 -98 -111 -98 -13 0 -13 -3 11 175 16 122 16 129 -2 133 -9
1 -91 -71 -203 -180 -104 -101 -194 -184 -201 -186 -8 -2 -46 35 -87 82 l-73
85 -25 -16 c-14 -9 -70 -40 -125 -69 -162 -84 -345 -137 -512 -150 l-92 -7 48
94 c27 52 53 93 58 92 4 -1 37 -14 73 -29 83 -35 176 -38 235 -7 52 27 121
101 170 183 21 36 52 84 67 108 l29 43 30 -25 c108 -91 261 7 229 147 -14 64
-35 94 -84 120 -59 31 -243 30 -366 -3 -180 -47 -243 -46 -291 8 -55 62 -72
346 -41 704 9 107 20 122 94 123 48 0 54 -3 75 -34 31 -46 45 -103 45 -180 -1
-76 39 -216 64 -225 39 -15 55 29 83 232 22 155 42 202 85 202 23 0 55 -28 74
-66 30 -57 66 -199 77 -299 10 -94 13 -105 35 -105 26 0 30 11 78 216 22 93
50 195 62 227 20 54 23 57 55 57 25 0 39 -7 53 -28z m-3113 -92 c9 -15 44
-292 38 -306 -8 -21 -31 -24 -51 -6 -25 23 -61 285 -41 308 13 16 45 19 54 4z
m180 -271 c29 -26 41 -50 71 -144 27 -84 35 -123 30 -148 -7 -35 -40 -87 -56
-87 -17 0 -21 40 -6 62 23 32 20 82 -10 172 -31 91 -61 126 -109 126 -21 0
-35 6 -39 16 -10 25 2 34 44 34 30 0 48 -8 75 -31z m-225 -34 c0 -8 -11 -31
-25 -51 -31 -46 -31 -70 1 -169 35 -106 62 -135 126 -135 44 0 48 -2 48 -24 0
-48 -91 -43 -145 8 -26 25 -40 55 -70 148 -40 128 -39 155 6 212 22 28 59 35
59 11z m198 -34 c48 -51 82 -221 47 -235 -9 -3 -15 0 -15 9 0 8 -12 22 -26 31
-24 16 -27 16 -52 -3 -23 -18 -27 -27 -24 -62 2 -40 2 -41 -31 -41 -62 0 -120
100 -121 208 -1 45 3 57 23 73 14 12 31 17 42 14 12 -4 30 2 45 14 38 30 80
27 112 -8z m16 -240 c7 -14 30 -79 52 -143 37 -112 38 -118 21 -135 -29 -30
-48 -5 -94 123 -55 155 -56 160 -38 178 20 19 42 11 59 -23z m239 -207 c15
-11 51 -64 82 -119 44 -80 55 -109 55 -145 0 -54 -12 -75 -35 -66 -14 5 -16
14 -11 50 6 38 2 53 -34 122 -23 44 -55 92 -72 108 -27 24 -37 28 -74 23 -41
-4 -54 3 -54 33 0 26 106 21 143 -6z m-35 -60 c28 -16 81 -98 103 -157 17 -47
7 -68 -28 -61 -39 7 -66 -15 -65 -55 1 -33 -19 -51 -58 -51 -44 0 -77 32 -121
116 l-44 84 20 37 c11 21 29 39 40 42 11 2 35 16 53 32 37 33 62 36 100 13z
m-204 -58 c-24 -35 -17 -91 22 -164 47 -88 84 -122 130 -122 19 0 44 5 55 11
21 11 49 -2 49 -23 0 -14 -66 -38 -107 -38 -60 0 -96 33 -158 146 -69 127 -72
174 -17 237 15 17 16 17 28 -5 10 -18 9 -26 -2 -42z m1912 -46 c67 -42 166
-72 264 -80 78 -6 83 -7 57 -18 -68 -29 -252 -6 -349 44 -24 12 -32 11 -91
-16 -88 -40 -176 -54 -254 -41 -85 13 -114 30 -53 31 110 1 253 38 319 84 46
32 51 32 107 -4z m1668 -142 c-65 -70 -96 -96 -79 -67 21 35 96 128 107 132
40 16 33 -1 -28 -65z m-2781 -197 c59 -58 107 -110 107 -116 0 -7 -9 -20 -20
-30 -23 -21 -17 -26 -210 150 -145 132 -150 139 -150 229 0 33 -3 35 273 -233z
m2421 190 l-7 -62 -151 -137 c-199 -181 -182 -169 -206 -147 -11 10 -20 23
-20 29 0 11 382 386 388 381 2 -2 0 -31 -4 -64z m-2932 7 c8 -7 72 -79 142
-160 118 -138 148 -188 112 -188 -39 0 -72 29 -177 152 -152 178 -142 163
-129 187 12 24 29 27 52 9z m1588 -44 c18 -47 3 -164 -21 -164 -15 0 -39 65
-39 107 0 38 22 83 41 83 5 0 14 -12 19 -26z m-372 -35 c86 -16 91 -19 57 -35
-58 -25 -123 -11 -178 40 -38 35 -26 48 23 25 23 -11 66 -25 98 -30z m825 19
c-39 -45 -144 -73 -182 -49 -9 6 4 12 40 21 30 7 74 23 99 35 51 26 70 23 43
-7z m-1734 -89 c20 -18 78 -71 130 -118 51 -47 100 -90 107 -94 8 -4 14 -12
14 -17 0 -9 -98 -130 -115 -142 -7 -5 -6 -13 2 -25 7 -10 28 -45 47 -78 19
-33 46 -77 61 -99 14 -21 24 -40 23 -42 -8 -7 -179 103 -303 195 -145 109
-309 250 -301 259 6 5 47 -3 176 -33 30 -7 76 -16 101 -20 l47 -7 -13 84 c-24
153 -25 168 -19 168 4 0 23 -14 43 -31z m2586 -121 c-9 -54 -15 -101 -13 -104
3 -2 47 5 99 16 52 12 114 25 139 30 25 5 53 12 63 15 57 23 -28 -62 -210
-207 -116 -94 -323 -231 -323 -215 0 8 8 25 19 38 10 13 33 48 50 78 36 60 40
47 -51 152 -32 36 -58 69 -58 73 0 7 23 29 200 189 111 100 112 99 85 -65z
m-1955 49 c242 -122 463 -173 705 -164 244 10 456 75 692 213 32 19 33 19 55
-4 l23 -23 -25 -19 c-14 -11 -62 -38 -106 -60 -285 -141 -540 -195 -808 -170
-211 19 -377 69 -600 181 -65 33 -121 57 -124 54 -9 -9 8 -20 111 -73 501
-258 1011 -252 1486 17 40 23 77 41 81 41 5 0 56 -55 114 -122 l105 -123 -59
-38 c-158 -100 -421 -209 -605 -251 -101 -23 -294 -46 -385 -46 -151 0 -394
40 -550 90 -153 50 -372 150 -488 224 -39 24 -42 29 -30 44 76 91 194 228 200
230 4 2 17 19 28 38 12 19 25 34 28 34 4 0 72 -33 152 -73z m-1038 -67 c5 0
36 -26 70 -59 171 -161 400 -331 590 -440 32 -18 67 -47 79 -64 12 -18 34 -44
47 -59 43 -47 14 -45 -86 7 -165 85 -301 174 -455 299 -109 88 -337 307 -337
323 0 7 15 8 43 2 23 -4 45 -8 49 -9z m3459 -9 c-10 -17 -184 -183 -286 -273
-50 -44 -212 -163 -285 -210 -111 -71 -320 -181 -328 -173 -2 2 22 33 54 69
41 45 93 87 167 133 175 110 401 283 532 410 39 37 87 60 133 62 19 1 21 -2
13 -18z m-2762 -243 c95 -58 280 -144 393 -182 528 -181 1062 -126 1558 163
41 24 82 50 91 58 15 13 20 11 48 -19 17 -18 31 -38 31 -43 0 -25 -420 -213
-545 -245 -16 -4 -64 -17 -105 -28 -179 -47 -257 -56 -480 -56 -278 -1 -424
25 -675 122 -118 45 -396 188 -444 229 -7 5 22 53 32 53 5 0 48 -23 96 -52z
m-48 -74 c55 -34 262 -137 322 -159 26 -10 50 -22 53 -26 8 -14 -45 -117 -80
-154 -19 -19 -42 -35 -52 -34 -30 1 -137 134 -237 296 -73 118 -73 120 -6 77z
m2134 -23 c-45 -88 -284 -361 -316 -361 -23 0 -61 51 -94 125 -21 47 -24 60
-13 70 7 7 58 29 113 49 55 21 147 61 205 91 58 29 108 54 113 54 4 1 1 -12
-8 -28z"/>
<path d="M2371 4767 c-5 -13 -15 -43 -22 -68 -7 -24 -17 -49 -23 -56 -10 -11
-284 -69 -290 -61 -2 2 -22 31 -45 65 l-41 62 -98 -35 c-150 -54 -153 -55
-148 -73 3 -9 8 -42 12 -73 l6 -57 -98 -64 c-55 -35 -113 -72 -130 -82 l-32
-18 -61 48 -61 48 -85 -78 c-47 -42 -85 -81 -85 -86 0 -5 14 -33 30 -62 17
-30 30 -59 30 -66 0 -6 -21 -34 -46 -61 l-47 -50 47 -55 c26 -30 53 -55 59
-54 7 0 35 27 62 60 97 116 251 234 414 318 506 260 1182 250 1677 -26 45 -25
108 -65 140 -89 69 -51 215 -194 247 -241 12 -18 25 -32 29 -30 3 1 30 24 59
51 58 55 58 51 -5 131 l-30 37 33 65 32 66 -82 83 c-93 93 -83 92 -176 22
l-43 -31 -122 75 -123 75 0 39 c0 21 3 58 7 81 l6 42 -102 39 c-158 61 -139
63 -192 -17 -26 -39 -50 -71 -53 -71 -18 0 -274 60 -279 65 -4 4 -18 39 -32
78 l-26 72 -152 3 c-152 3 -152 2 -161 -21z m316 -72 c14 -38 28 -74 33 -79 7
-7 288 -76 312 -76 4 0 27 32 52 70 25 39 48 70 50 70 10 0 192 -72 198 -78 4
-4 3 -38 -3 -77 -7 -53 -7 -72 3 -81 20 -19 259 -164 271 -164 5 0 34 18 63
40 29 22 57 40 61 40 4 0 39 -29 76 -64 l68 -64 -30 -61 c-17 -33 -31 -66 -31
-72 0 -6 18 -33 40 -59 l40 -48 -36 -35 -37 -35 -111 112 c-169 171 -345 278
-581 355 -219 72 -316 86 -590 86 -244 0 -287 -4 -460 -47 -285 -69 -529 -202
-724 -395 -58 -57 -107 -103 -111 -103 -12 0 -60 56 -60 71 0 8 18 33 40 54
22 21 40 44 40 50 0 6 -14 37 -31 69 l-32 58 64 64 c35 35 70 64 78 64 8 0 39
-19 69 -41 l55 -42 31 18 c65 38 222 139 238 154 15 14 16 25 8 81 -5 36 -6
68 -2 72 10 10 177 68 195 68 8 0 30 -23 48 -52 19 -28 37 -55 40 -60 3 -4 78
6 167 23 l162 32 21 71 c12 39 23 75 26 79 2 4 63 6 135 5 l131 -3 24 -70z"/>
<path d="M2280 3857 l0 -283 33 -30 c17 -17 43 -35 57 -42 45 -21 195 -74 210
-74 19 0 167 55 219 81 21 11 49 32 60 47 20 26 21 38 21 305 l0 279 -300 0
-300 0 0 -283z m329 108 l23 -75 84 0 c46 0 84 -4 84 -8 0 -5 -29 -30 -65 -56
-36 -26 -65 -49 -65 -50 0 -1 11 -36 25 -76 14 -40 25 -75 25 -77 0 -10 -23 2
-78 42 -36 26 -68 43 -75 39 -7 -4 -37 -27 -69 -50 -31 -23 -58 -40 -61 -37
-3 2 6 37 19 76 13 39 24 75 24 81 0 6 -23 27 -52 46 -93 64 -93 64 6 70 l87
5 20 60 c11 33 22 66 24 73 10 27 23 8 44 -63z"/>
<path d="M1597 3811 c-3 -14 -1 -18 9 -14 8 3 14 11 14 19 0 21 -17 17 -23 -5z"/>
<path d="M1660 3818 c0 -9 5 -20 11 -23 17 -11 20 0 4 21 -13 17 -14 17 -15 2z"/>
<path d="M3442 3761 c-29 -54 -52 -101 -52 -104 0 -4 52 -6 115 -6 63 0 115 2
115 6 0 16 -107 203 -116 203 -6 0 -34 -44 -62 -99z"/>
<path d="M1745 815 c-28 -56 -28 -87 1 -47 22 32 34 27 34 -12 0 -19 5 -38 10
-41 6 -4 10 10 10 34 0 41 20 71 46 71 8 0 14 5 14 10 0 13 -26 13 -52 -1 -25
-14 -33 -6 -18 20 8 17 8 21 -3 21 -8 0 -26 -25 -42 -55z"/>
<path d="M3301 843 c0 -5 6 -35 13 -67 13 -62 32 -84 38 -44 3 20 8 23 43 21
l40 -3 -52 50 c-46 44 -84 64 -82 43z m52 -66 c-3 -5 -10 -4 -15 1 -6 6 -7 16
-3 22 6 9 9 9 16 -1 4 -7 5 -17 2 -22z"/>
<path d="M3240 811 c0 -12 47 -102 60 -115 23 -23 19 7 -9 63 -28 54 -51 78
-51 52z"/>
<path d="M1850 778 c-25 -41 -25 -70 -2 -91 40 -37 88 -9 99 57 7 44 -9 66
-48 66 -22 0 -34 -8 -49 -32z m75 -7 c9 -30 -15 -71 -42 -71 -18 0 -23 5 -23
26 0 55 50 90 65 45z"/>
<path d="M3165 774 c-14 -14 -14 -19 -2 -38 9 -12 27 -22 46 -24 24 -3 31 -8
29 -20 -2 -12 -11 -16 -33 -14 -26 4 -28 2 -16 -12 16 -19 52 -21 69 -4 30 30
0 78 -50 78 -19 0 -28 4 -25 13 2 6 14 11 26 10 13 -2 21 3 21 12 0 20 -44 19
-65 -1z"/>
<path d="M1983 768 c-13 -18 -43 -100 -43 -118 1 -10 8 -7 21 10 13 15 29 24
41 22 49 -8 69 65 23 86 -32 15 -30 15 -42 0z m47 -44 c0 -8 -9 -14 -20 -14
-19 0 -27 19 -14 33 10 9 34 -4 34 -19z"/>
<path d="M3085 748 c-11 -6 -22 -12 -23 -14 -2 -1 4 -30 14 -63 20 -65 28 -70
78 -51 36 13 32 30 -6 27 -39 -2 -50 14 -19 28 33 15 27 36 -9 29 -23 -5 -30
-3 -30 9 0 9 10 17 22 19 27 4 37 28 11 28 -10 0 -27 -6 -38 -12z"/>
<path d="M2073 728 c-6 -13 -16 -43 -23 -67 -12 -45 -5 -60 27 -61 6 0 18 -3
27 -6 10 -4 16 -1 16 9 0 9 -10 17 -22 19 -33 4 -29 33 4 33 38 0 45 13 14 25
-37 14 -28 36 12 32 37 -4 43 13 8 22 -13 3 -30 8 -38 11 -8 3 -19 -4 -25 -17z"/>
<path d="M3027 723 c-4 -6 -2 -24 3 -39 15 -39 6 -40 -26 -5 -38 43 -54 41
-47 -6 3 -21 10 -42 14 -47 5 -6 9 -18 9 -28 0 -10 5 -18 11 -18 7 0 9 13 5
38 l-7 37 31 -32 c52 -57 62 -40 32 57 -10 32 -21 50 -25 43z"/>
<path d="M2171 697 c-16 -42 -24 -117 -13 -117 6 0 12 10 14 22 5 35 25 32 38
-6 10 -30 16 -36 40 -36 16 0 30 7 34 15 8 21 22 19 46 -7 11 -12 22 -19 25
-16 10 10 -18 138 -30 138 -7 0 -24 -25 -39 -55 -14 -30 -31 -55 -36 -55 -18
0 -22 41 -6 59 31 34 17 62 -37 75 -23 5 -29 2 -36 -17z m57 -30 c2 -12 -3
-17 -17 -17 -15 0 -21 6 -21 21 0 25 33 22 38 -4z m102 -42 c0 -8 -7 -15 -15
-15 -16 0 -20 12 -8 23 11 12 23 8 23 -8z"/>
<path d="M2857 682 c-10 -10 -17 -27 -17 -37 0 -14 -4 -13 -21 9 -15 19 -30
26 -55 26 -33 0 -34 -1 -34 -39 0 -21 3 -53 6 -70 6 -28 10 -31 41 -31 29 0
36 5 46 30 11 29 27 41 27 20 0 -5 11 -17 25 -26 23 -15 27 -15 50 0 20 13 25
25 25 60 0 67 -54 101 -93 58z m69 -37 c12 -47 -11 -79 -42 -57 -20 13 -25 59
-9 76 20 19 44 10 51 -19z m-119 -23 c7 -28 -6 -55 -29 -60 -12 -2 -17 8 -20
40 -3 24 0 46 5 50 17 11 37 -3 44 -30z"/>
<path d="M2397 673 c-16 -15 -6 -53 18 -69 26 -17 34 -44 13 -44 -6 0 -20 7
-30 17 -16 14 -18 14 -18 0 0 -16 25 -47 38 -47 18 0 52 33 52 50 0 11 -12 27
-27 37 -16 9 -30 18 -32 19 -1 2 0 7 4 13 4 8 12 8 26 0 26 -13 36 -5 19 16
-13 15 -51 20 -63 8z"/>
<path d="M2496 663 c-10 -10 -7 -133 3 -133 5 0 11 30 13 66 3 63 -1 81 -16
67z"/>
<path d="M2576 663 c-8 -8 -8 -96 0 -117 13 -35 24 -13 24 48 0 60 -8 84 -24
69z"/>
<path d="M2620 600 c0 -40 4 -70 10 -70 6 0 10 18 10 41 0 33 2 38 13 27 7 -7
18 -25 24 -40 21 -47 33 -32 33 42 0 40 -4 70 -10 70 -5 0 -10 -13 -10 -30 0
-16 -4 -30 -9 -30 -5 0 -14 14 -21 30 -23 55 -40 38 -40 -40z"/>
</g>
</svg>
